<svg width="216" height="234" viewBox="0 0 216 234" fill="none" xmlns="http://www.w3.org/2000/svg">
<g filter="url(#filter0_d_431_2601)">
<rect x="9" y="5" width="197.763" height="215.139" rx="10" fill="#FF6B35"/>
<rect x="8.5" y="4.5" width="198.763" height="216.139" rx="10.5" stroke="white"/>
</g>
<path d="M75.928 181.808H69.256L68.152 185H64.624L70.648 168.224H74.56L80.584 185H77.032L75.928 181.808ZM75.016 179.12L72.592 172.112L70.168 179.12H75.016ZM82.9717 178.304C82.9717 176.96 83.2357 175.768 83.7637 174.728C84.3077 173.688 85.0437 172.888 85.9717 172.328C86.8997 171.768 87.9317 171.488 89.0677 171.488C89.9317 171.488 90.7557 171.68 91.5397 172.064C92.3237 172.432 92.9477 172.928 93.4117 173.552V167.24H96.8197V185H93.4117V183.032C92.9957 183.688 92.4117 184.216 91.6597 184.616C90.9077 185.016 90.0357 185.216 89.0437 185.216C87.9237 185.216 86.8997 184.928 85.9717 184.352C85.0437 183.776 84.3077 182.968 83.7637 181.928C83.2357 180.872 82.9717 179.664 82.9717 178.304ZM93.4357 178.352C93.4357 177.536 93.2757 176.84 92.9557 176.264C92.6357 175.672 92.2037 175.224 91.6597 174.92C91.1157 174.6 90.5317 174.44 89.9077 174.44C89.2837 174.44 88.7077 174.592 88.1797 174.896C87.6517 175.2 87.2197 175.648 86.8837 176.24C86.5637 176.816 86.4037 177.504 86.4037 178.304C86.4037 179.104 86.5637 179.808 86.8837 180.416C87.2197 181.008 87.6517 181.464 88.1797 181.784C88.7237 182.104 89.2997 182.264 89.9077 182.264C90.5317 182.264 91.1157 182.112 91.6597 181.808C92.2037 181.488 92.6357 181.04 92.9557 180.464C93.2757 179.872 93.4357 179.168 93.4357 178.352ZM117.613 171.512C119.245 171.512 120.557 172.016 121.549 173.024C122.557 174.016 123.061 175.408 123.061 177.2V185H119.701V177.656C119.701 176.616 119.437 175.824 118.909 175.28C118.381 174.72 117.661 174.44 116.749 174.44C115.837 174.44 115.109 174.72 114.565 175.28C114.037 175.824 113.773 176.616 113.773 177.656V185H110.413V177.656C110.413 176.616 110.149 175.824 109.621 175.28C109.093 174.72 108.373 174.44 107.461 174.44C106.533 174.44 105.797 174.72 105.253 175.28C104.725 175.824 104.461 176.616 104.461 177.656V185H101.101V171.704H104.461V173.312C104.893 172.752 105.445 172.312 106.117 171.992C106.805 171.672 107.557 171.512 108.373 171.512C109.413 171.512 110.341 171.736 111.157 172.184C111.973 172.616 112.605 173.24 113.053 174.056C113.485 173.288 114.109 172.672 114.925 172.208C115.757 171.744 116.653 171.512 117.613 171.512ZM128.954 170.12C128.362 170.12 127.866 169.936 127.466 169.568C127.082 169.184 126.89 168.712 126.89 168.152C126.89 167.592 127.082 167.128 127.466 166.76C127.866 166.376 128.362 166.184 128.954 166.184C129.546 166.184 130.034 166.376 130.418 166.76C130.818 167.128 131.018 167.592 131.018 168.152C131.018 168.712 130.818 169.184 130.418 169.568C130.034 169.936 129.546 170.12 128.954 170.12ZM130.61 171.704V185H127.25V171.704H130.61ZM142.297 171.512C143.881 171.512 145.161 172.016 146.137 173.024C147.113 174.016 147.601 175.408 147.601 177.2V185H144.241V177.656C144.241 176.6 143.977 175.792 143.449 175.232C142.921 174.656 142.201 174.368 141.289 174.368C140.361 174.368 139.625 174.656 139.081 175.232C138.553 175.792 138.289 176.6 138.289 177.656V185H134.929V171.704H138.289V173.36C138.737 172.784 139.305 172.336 139.993 172.016C140.697 171.68 141.465 171.512 142.297 171.512Z" fill="white"/>
<path d="M168.548 112.614C169.09 109.675 169.09 106.673 168.548 103.733L173.927 100.627C174.553 100.272 174.824 99.5426 174.615 98.8546C173.218 94.3514 170.821 90.2652 167.694 86.8878C167.214 86.3666 166.443 86.2416 165.817 86.596L160.439 89.7023C158.166 87.7635 155.56 86.2624 152.746 85.2617V79.049C152.746 78.3401 152.245 77.7147 151.557 77.5688C146.908 76.5263 142.176 76.568 137.756 77.5688C137.068 77.7147 136.568 78.3401 136.568 79.049V85.2617C133.753 86.2624 131.147 87.7635 128.875 89.7023L123.496 86.596C122.891 86.2416 122.099 86.3666 121.619 86.8878C118.492 90.2652 116.095 94.3514 114.698 98.8546C114.489 99.5426 114.781 100.272 115.386 100.627L120.765 103.733C120.223 106.673 120.223 109.675 120.765 112.614L115.386 115.721C114.76 116.075 114.489 116.805 114.698 117.493C116.095 121.996 118.492 126.061 121.619 129.46C122.099 129.981 122.87 130.106 123.496 129.751L128.875 126.645C131.147 128.584 133.753 130.085 136.568 131.086V137.298C136.568 138.007 137.068 138.633 137.756 138.779C142.405 139.821 147.137 139.779 151.557 138.779C152.245 138.633 152.746 138.007 152.746 137.298V131.086C155.56 130.085 158.166 128.584 160.439 126.645L165.817 129.751C166.422 130.106 167.214 129.981 167.694 129.46C170.821 126.082 173.218 121.996 174.615 117.493C174.824 116.805 174.532 116.075 173.927 115.721L168.548 112.614ZM144.677 118.285C139.09 118.285 134.566 113.74 134.566 108.174C134.566 102.607 139.111 98.0624 144.677 98.0624C150.244 98.0624 154.789 102.607 154.789 108.174C154.789 113.74 150.265 118.285 144.677 118.285ZM87.9707 88.1596C102.71 88.1596 114.656 76.2136 114.656 61.474C114.656 46.7345 102.71 34.7885 87.9707 34.7885C73.2311 34.7885 61.2851 46.7345 61.2851 61.474C61.2851 76.2136 73.2311 88.1596 87.9707 88.1596ZM129.917 135.38C129.437 135.13 128.958 134.838 128.499 134.567L126.852 135.526C125.601 136.235 124.184 136.631 122.766 136.631C120.494 136.631 118.305 135.672 116.741 134.004C112.926 129.877 110.007 124.852 108.36 119.494C107.213 115.804 108.756 111.906 112.092 109.967L113.739 109.008C113.718 108.466 113.718 107.924 113.739 107.381L112.092 106.422C108.756 104.504 107.213 100.585 108.36 96.8949C108.548 96.2903 108.819 95.6857 109.027 95.0811C108.235 95.0186 107.464 94.831 106.651 94.831H103.169C98.5406 96.9575 93.3912 98.1666 87.9707 98.1666C82.5502 98.1666 77.4215 96.9575 72.7724 94.831H69.2908C53.8215 94.831 41.271 107.381 41.271 122.851V131.524C41.271 137.048 45.7533 141.531 51.2781 141.531H124.663C126.769 141.531 128.729 140.863 130.334 139.759C130.084 138.966 129.917 138.153 129.917 137.298V135.38Z" fill="white"/>
<defs>
<filter id="filter0_d_431_2601" x="0" y="0" width="215.763" height="233.139" filterUnits="userSpaceOnUse" color-interpolation-filters="sRGB">
<feFlood flood-opacity="0" result="BackgroundImageFix"/>
<feColorMatrix in="SourceAlpha" type="matrix" values="0 0 0 0 0 0 0 0 0 0 0 0 0 0 0 0 0 0 127 0" result="hardAlpha"/>
<feOffset dy="4"/>
<feGaussianBlur stdDeviation="4"/>
<feComposite in2="hardAlpha" operator="out"/>
<feColorMatrix type="matrix" values="0 0 0 0 0 0 0 0 0 0 0 0 0 0 0 0 0 0 0.1 0"/>
<feBlend mode="normal" in2="BackgroundImageFix" result="effect1_dropShadow_431_2601"/>
<feBlend mode="normal" in="SourceGraphic" in2="effect1_dropShadow_431_2601" result="shape"/>
</filter>
</defs>
</svg>
